<?xml version="1.0" encoding="UTF-8" standalone="no"?>
<svg
   xmlns:dc="http://purl.org/dc/elements/1.1/"
   xmlns:cc="http://creativecommons.org/ns#"
   xmlns:rdf="http://www.w3.org/1999/02/22-rdf-syntax-ns#"
   xmlns:svg="http://www.w3.org/2000/svg"
   xmlns="http://www.w3.org/2000/svg"
   viewBox="0 0 755.90533 415.74799"
   height="415.74799"
   width="755.90533"
   xml:space="preserve"
   id="svg2"
   version="1.1"><metadata
     id="metadata8"><rdf:RDF><cc:Work
         rdf:about=""><dc:format>image/svg+xml</dc:format><dc:type
           rdf:resource="http://purl.org/dc/dcmitype/StillImage" /></cc:Work></rdf:RDF></metadata><defs
     id="defs6"><clipPath
       id="clipPath18"
       clipPathUnits="userSpaceOnUse"><path
         id="path16"
         d="M 0,311.811 H 566.929 V 0 H 0 Z" /></clipPath></defs><g
     transform="matrix(1.3333333,0,0,-1.3333333,0,415.748)"
     id="g10"><g
       id="g12"><g
         clip-path="url(#clipPath18)"
         id="g14"><g
           transform="translate(208.8613,113.9609)"
           id="g20"><path
             id="path22"
             style="fill:#ffffff;fill-opacity:1;fill-rule:nonzero;stroke:none"
             d="m 0,0 v -17.361 h 15.809 c 2.823,0 5.022,0.382 6.594,1.15 2.852,1.414 4.279,4.122 4.279,8.129 0,3.384 -1.383,5.712 -4.148,6.979 C 20.991,-0.396 18.822,-0.028 16.026,0 Z M 0,25.139 V 10.78 h 15.826 c 2.827,0 5.122,0.535 6.886,1.613 1.763,1.074 2.646,2.981 2.646,5.721 0,3.032 -1.167,5.036 -3.498,6.006 -2.012,0.679 -4.576,1.019 -7.695,1.019 z m 35.356,4.372 c 1.991,-2.769 2.989,-6.081 2.989,-9.94 0,-3.976 -1.007,-7.171 -3.015,-9.587 -1.125,-1.353 -2.779,-2.591 -4.968,-3.708 3.324,-1.212 5.832,-3.125 7.522,-5.747 1.692,-2.62 2.538,-5.8 2.538,-9.54 0,-3.858 -0.967,-7.318 -2.901,-10.382 -1.229,-2.031 -2.766,-3.74 -4.61,-5.124 -2.079,-1.59 -4.532,-2.68 -7.358,-3.267 -2.825,-0.591 -5.893,-0.885 -9.201,-0.885 H -12.987 V 36.446 H 18.48 c 7.939,-0.118 13.565,-2.428 16.876,-6.935" /></g><path
           id="path24"
           style="fill:#ffffff;fill-opacity:1;fill-rule:nonzero;stroke:none"
           d="m 270.688,85.292 h -13.516 v 65.115 h 13.516 z" /><g
           transform="translate(280.6978,150.4072)"
           id="g26"><path
             id="path28"
             style="fill:#ffffff;fill-opacity:1;fill-rule:nonzero;stroke:none"
             d="M 0,0 H 13.606 V -53.411 H 46.119 V -65.115 L 0,-65.115 Z" /></g><g
           transform="translate(333.2461,150.4072)"
           id="g30"><path
             id="path32"
             style="fill:#ffffff;fill-opacity:1;fill-rule:nonzero;stroke:none"
             d="M 0,0 H 13.607 V -53.411 H 46.119 V -65.115 L 0,-65.115 Z" /></g><g
           transform="translate(419.1279,136.9345)"
           id="g34"><path
             id="path36"
             style="fill:#ffffff;fill-opacity:1;fill-rule:nonzero;stroke:none"
             d="m 0,0 c -1.724,1.442 -4.138,2.165 -7.243,2.165 h -12.261 v -19.173 h 12.261 c 3.105,0 5.519,0.779 7.243,2.342 1.724,1.559 2.584,4.033 2.584,7.422 C 2.584,-3.86 1.724,-1.444 0,0 M 10.386,-23.457 C 6.575,-26.639 1.13,-28.229 -5.943,-28.229 h -13.561 v -23.414 h -13.515 v 65.116 h 27.957 c 6.445,0 11.585,-1.679 15.416,-5.035 3.834,-3.357 5.75,-8.556 5.75,-15.596 0,-7.688 -1.907,-13.118 -5.718,-16.299" /></g><g
           transform="translate(454.4805,109.8965)"
           id="g38"><path
             id="path40"
             style="fill:#ffffff;fill-opacity:1;fill-rule:nonzero;stroke:none"
             d="M 0,0 H 16.68 L 8.453,25.622 Z M 0.898,40.511 H 16.295 L 39.331,-24.604 H 24.577 L 20.278,-11.22 H -3.699 l -4.413,-13.384 h -14.236 z" /></g><g
           transform="translate(528.2285,150.4072)"
           id="g42"><path
             id="path44"
             style="fill:#ffffff;fill-opacity:1;fill-rule:nonzero;stroke:none"
             d="M 0,0 H 15.418 L -6.362,-40.7 V -65.115 H -19.969 V -40.7 L -42.499,0 h 16.035 l 13.522,-28.361 z" /></g><g
           transform="translate(225.5132,171.7607)"
           id="g46"><path
             id="path48"
             style="fill:#ffffff;fill-opacity:1;fill-rule:nonzero;stroke:none"
             d="m 0,0 c 1.399,0 2.735,0.136 4.014,0.41 1.276,0.274 2.399,0.728 3.374,1.369 0.973,0.637 1.746,1.505 2.322,2.598 0.579,1.096 0.869,2.492 0.869,4.196 0,3.343 -0.944,5.73 -2.827,7.16 -1.886,1.426 -4.377,2.142 -7.48,2.142 H -15.323 V 0 Z m -0.823,27.634 c 2.555,0 4.653,0.607 6.294,1.824 1.641,1.215 2.464,3.192 2.464,5.927 0,1.519 -0.273,2.767 -0.823,3.74 -0.546,0.972 -1.276,1.733 -2.187,2.28 -0.911,0.546 -1.963,0.926 -3.146,1.14 -1.185,0.212 -2.42,0.319 -3.694,0.319 H -15.323 V 27.634 Z M 1.004,53.99 c 3.101,0 5.927,-0.274 8.479,-0.82 2.554,-0.549 4.745,-1.445 6.567,-2.691 1.825,-1.248 3.239,-2.903 4.241,-4.97 1.006,-2.067 1.507,-4.623 1.507,-7.66 0,-3.284 -0.746,-6.02 -2.237,-8.209 -1.489,-2.188 -3.694,-3.983 -6.611,-5.381 4.012,-1.155 7.007,-3.177 8.984,-6.065 1.974,-2.889 2.963,-6.37 2.963,-10.443 0,-3.282 -0.638,-6.126 -1.915,-8.527 -1.277,-2.402 -2.995,-4.364 -5.151,-5.881 -2.161,-1.522 -4.623,-2.645 -7.391,-3.376 -2.766,-0.73 -5.606,-1.095 -8.525,-1.095 H -29.64 V 53.99 Z" /></g><g
           transform="translate(270.7485,225.7509)"
           id="g50"><path
             id="path52"
             style="fill:#ffffff;fill-opacity:1;fill-rule:nonzero;stroke:none"
             d="M 0,0 V -24.987 H 26.356 V 0 H 40.673 V -65.118 H 26.356 v 28.092 H 0 V -65.118 H -14.321 V 0 Z" /></g><g
           transform="translate(355.4717,185.8061)"
           id="g54"><path
             id="path56"
             style="fill:#ffffff;fill-opacity:1;fill-rule:nonzero;stroke:none"
             d="M 0,0 -8.205,23.894 H -8.388 L -16.872,0 Z M -0.819,39.945 23.53,-25.173 H 8.666 L 3.74,-10.67 h -24.351 l -5.104,-14.503 h -14.412 l 24.625,65.118 z" /></g><g
           transform="translate(412.8389,196.2934)"
           id="g58"><path
             id="path60"
             style="fill:#ffffff;fill-opacity:1;fill-rule:nonzero;stroke:none"
             d="m 0,0 c 3.282,0 5.745,0.729 7.386,2.188 1.643,1.459 2.465,3.832 2.465,7.115 0,3.16 -0.822,5.456 -2.465,6.884 C 5.745,17.617 3.282,18.332 0,18.332 H -15.688 V 0 Z m 5.104,29.458 c 2.92,0 5.55,-0.471 7.891,-1.414 2.341,-0.943 4.349,-2.234 6.021,-3.877 1.671,-1.641 2.947,-3.54 3.829,-5.698 0.881,-2.16 1.323,-4.485 1.323,-6.978 0,-3.829 -0.808,-7.144 -2.418,-9.939 -1.611,-2.8 -4.24,-4.926 -7.887,-6.386 v -0.183 c 1.761,-0.486 3.221,-1.231 4.375,-2.233 1.155,-1.004 2.1,-2.189 2.828,-3.556 0.729,-1.369 1.26,-2.874 1.596,-4.515 0.333,-1.643 0.561,-3.284 0.686,-4.925 0.059,-1.035 0.12,-2.25 0.182,-3.65 0.06,-1.397 0.165,-2.827 0.319,-4.284 0.15,-1.46 0.395,-2.843 0.728,-4.15 0.335,-1.308 0.836,-2.416 1.505,-3.331 H 11.764 c -0.789,2.068 -1.277,4.53 -1.459,7.39 -0.183,2.856 -0.454,5.592 -0.822,8.208 -0.488,3.403 -1.519,5.895 -3.099,7.478 -1.582,1.579 -4.168,2.372 -7.753,2.372 h -14.319 v -25.448 h -14.319 v 65.119 z" /></g><g
           transform="translate(480.1426,185.8061)"
           id="g62"><path
             id="path64"
             style="fill:#ffffff;fill-opacity:1;fill-rule:nonzero;stroke:none"
             d="M 0,0 -8.207,23.894 H -8.391 L -16.873,0 Z M -0.82,39.945 23.53,-25.173 H 8.663 L 3.738,-10.67 h -24.349 l -5.109,-14.503 h -14.41 l 24.626,65.118 z" /></g><g
           transform="translate(494.0049,213.7119)"
           id="g66"><path
             id="path68"
             style="fill:#ffffff;fill-opacity:1;fill-rule:nonzero;stroke:none"
             d="M 0,0 V 12.039 H 53.354 V 0 H 33.835 V -53.079 H 19.518 V 0 Z" /></g><g
           transform="translate(56.6401,204.5239)"
           id="g70"><path
             id="path72"
             style="fill:#f9b73f;fill-opacity:1;fill-rule:nonzero;stroke:none"
             d="m 0,0 h 25.821 c 2.899,0 5.693,-0.242 8.379,-0.727 2.69,-0.484 5.071,-1.344 7.139,-2.582 2.071,-1.242 3.723,-2.967 4.965,-5.174 1.24,-2.203 1.863,-5.034 1.863,-8.477 0,-6.214 -1.863,-10.697 -5.584,-13.455 9.582,-1.849 16.687,-3.823 24.209,-7.452 3.147,2.31 5.746,4.923 7.752,7.867 3.377,4.97 5.067,11.173 5.067,18.625 0,6.892 -1.138,12.68 -3.411,17.376 -2.279,4.685 -5.482,8.443 -9.623,11.274 -4.135,2.821 -9.102,4.859 -14.893,6.101 -5.794,1.239 -12.208,1.863 -19.243,1.863 L 0,25.239 Z" /></g><g
           transform="translate(108.8408,117.2216)"
           id="g74"><path
             id="path76"
             style="fill:#f17f36;fill-opacity:1;fill-rule:nonzero;stroke:none"
             d="m 0,0 c -1.312,-2.489 -3.071,-4.456 -5.276,-5.899 -2.208,-1.45 -4.757,-2.479 -7.654,-3.105 -2.898,-0.615 -5.935,-0.927 -9.104,-0.927 h -34.757 v 40.548 h 35.376 c 7.037,0 12.69,-1.629 16.968,-4.862 C -0.174,22.514 1.961,17.1 1.961,9.512 1.961,5.651 1.312,2.482 0,0 m -23.896,52.751 h -32.895 v 34.551 h 0.015 v 25.239 H -89.271 V -35.172 h 71.584 c 6.62,0 13.061,0.823 19.344,2.483 6.275,1.651 11.858,4.205 16.755,7.652 4.893,3.446 8.794,7.895 11.692,13.342 2.895,5.451 4.341,11.901 4.341,19.35 0,9.232 -2.414,17.013 -6.723,23.687 -8.324,12.889 -26.373,21.409 -51.618,21.409" /></g><g
           transform="translate(169.6475,68.3886)"
           id="g78"><path
             id="path80"
             style="fill:#7c7f81;fill-opacity:1;fill-rule:nonzero;stroke:none"
             d="m 0,0 c -1.012,0 -1.833,0.82 -1.833,1.833 v 171.368 c 0,1.012 0.821,1.832 1.833,1.832 1.012,0 1.833,-0.82 1.833,-1.832 V 1.833 C 1.833,0.82 1.012,0 0,0" /></g></g></g></g></svg>